<?xml version="1.0" standalone="no"?>
<!DOCTYPE svg PUBLIC "-//W3C//DTD SVG 20010904//EN"
 "http://www.w3.org/TR/2001/REC-SVG-20010904/DTD/svg10.dtd">
<svg version="1.0" xmlns="http://www.w3.org/2000/svg"
 width="740.000000pt" height="486.000000pt" viewBox="0 0 740.000000 486.000000"
 preserveAspectRatio="xMidYMid meet">

<g transform="translate(0.000000,486.000000) scale(0.100000,-0.100000)"
fill="#000000" stroke="none">
<path d="M373 2316 c-22 -27 -23 -33 -29 -116 -3 -36 -7 -71 -9 -77 -2 -7 2
-28 10 -46 7 -18 12 -42 10 -53 -2 -10 -4 -24 -4 -31 -1 -9 -8 -8 -28 2 -15 8
-29 12 -32 10 -7 -7 28 -33 68 -50 31 -14 36 -14 43 0 6 9 23 15 45 15 28 0
34 3 29 16 -4 9 -1 23 5 30 6 8 9 21 5 29 -3 8 -1 15 4 15 4 0 11 13 15 30 4
16 11 33 16 36 6 3 3 14 -7 26 -16 16 -16 21 -4 29 10 6 11 12 5 17 -6 4 -12
18 -12 30 -1 13 -13 34 -27 47 -14 13 -26 28 -26 32 0 5 -13 14 -29 20 -26 9
-32 8 -48 -11z"/>
<path d="M1405 2318 c-22 -13 -105 -94 -105 -104 0 -4 7 0 17 7 15 13 15 12 4
-8 -6 -13 -9 -33 -5 -47 4 -17 0 -27 -13 -36 -16 -10 -16 -10 5 -5 15 4 22 2
22 -8 0 -8 -10 -19 -22 -25 l-23 -11 22 0 c21 -1 25 -15 10 -38 -6 -10 -2 -11
17 -3 22 8 25 7 23 -9 -2 -11 -9 -26 -15 -34 -10 -11 -10 -17 -2 -22 6 -4 9
-13 6 -21 -3 -8 0 -15 7 -15 7 -1 17 -2 23 -3 12 -1 49 -36 38 -36 -5 0 -3 -5
3 -11 13 -13 53 -3 53 14 0 7 17 27 37 45 l38 33 -42 -21 c-41 -20 -69 -51
-56 -64 3 -3 -1 -6 -10 -6 -17 0 -16 24 2 59 14 25 14 34 0 25 -6 -3 -4 7 4
22 31 62 52 294 26 294 -5 0 -9 7 -9 16 0 10 -6 14 -14 11 -8 -3 -16 -2 -18 3
-2 5 -12 4 -23 -2z"/>
<path d="M1273 2204 c-7 -7 -13 -19 -13 -26 0 -7 7 -2 16 10 18 26 16 37 -3
16z"/>
<path d="M2706 1839 c-21 -5 -50 -15 -65 -23 -42 -23 -123 -53 -161 -61 -19
-4 -63 -20 -97 -36 -52 -23 -63 -32 -63 -52 0 -37 61 -152 120 -226 19 -24 42
-52 51 -63 15 -19 17 -19 48 -4 17 9 36 14 41 11 4 -3 6 -31 4 -63 -7 -78 0
-102 27 -95 11 3 17 9 11 12 -28 19 -18 133 14 145 8 3 13 2 10 -2 -5 -8 18
-44 28 -43 18 2 19 -1 1 -9 -17 -7 -17 -9 -2 -9 9 -1 17 -6 17 -12 0 -5 -4 -8
-9 -4 -5 3 -13 0 -17 -6 -4 -8 -3 -9 4 -5 12 7 15 -3 12 -41 -2 -27 7 -29 40
-6 39 26 72 77 38 57 -7 -4 -4 2 6 14 15 17 22 19 33 11 7 -6 13 -19 13 -28 0
-9 11 0 25 21 14 20 22 43 19 51 -3 9 3 16 15 20 15 4 21 13 21 35 0 16 3 50
6 76 6 39 4 45 -8 41 -10 -4 -17 1 -21 14 -6 26 -58 29 -77 6 -14 -17 -23 -13
-26 10 -1 8 2 15 8 15 6 0 5 6 -2 15 -18 21 -35 19 -54 -7 -16 -22 -16 -21 -1
9 21 45 19 60 -6 37 l-21 -19 6 35 c14 68 38 96 71 84 11 -4 12 -11 5 -24 -5
-9 -7 -20 -3 -23 3 -4 -2 -18 -11 -31 -20 -31 -20 -36 -2 -36 8 0 16 7 20 15
3 8 13 15 21 15 9 0 13 5 9 11 -4 8 -1 8 12 2 11 -5 37 -9 59 -9 34 1 41 5 43
24 4 23 16 29 28 11 3 -6 17 -8 30 -5 23 6 24 5 26 -61 0 -38 0 -75 -1 -83
-14 -86 -21 -240 -12 -240 3 0 29 -22 56 -48 116 -110 161 -188 148 -255 -3
-17 -28 -51 -59 -82 -30 -29 -54 -55 -54 -58 0 -3 6 -19 13 -37 l14 -31 15 23
c17 26 78 156 78 166 0 4 18 27 40 52 23 25 43 57 47 73 3 15 10 30 14 33 17
10 14 -2 -43 -165 -30 -86 -37 -96 -71 -114 -43 -22 -52 -36 -61 -94 -7 -50
-1 -52 59 -24 41 19 115 84 115 101 0 6 11 10 24 10 13 0 27 7 30 16 4 12 1
14 -14 9 -16 -5 -20 -2 -20 14 0 12 3 20 8 20 26 -4 30 2 16 29 -7 15 -14 37
-14 50 0 12 -5 22 -12 22 -6 0 -8 3 -5 6 4 4 13 1 21 -5 12 -10 15 -2 18 51 1
34 -2 83 -9 108 -17 62 -16 63 11 56 14 -3 28 0 35 8 9 11 5 19 -17 38 -38 32
-48 84 -26 130 l16 34 32 -32 c41 -41 111 -64 130 -43 32 35 76 206 76 296 0
40 -3 44 -36 58 -19 8 -63 19 -97 26 -71 12 -163 36 -192 49 -69 31 -98 39
-114 31 -27 -15 -53 -49 -46 -60 3 -6 3 -11 -2 -11 -4 0 -35 -5 -68 -10 -82
-14 -238 -3 -231 17 7 18 -19 69 -39 77 -19 7 -17 7 -69 -5z m439 -99 c3 -5 1
-10 -4 -10 -6 0 -11 5 -11 10 0 6 2 10 4 10 3 0 8 -4 11 -10z m79 -72 c39 -66
16 -62 -27 4 -19 31 -21 38 -8 38 6 0 21 -19 35 -42z m-154 -71 c0 -18 -28
-75 -41 -82 -15 -10 -10 49 7 73 17 25 34 29 34 9z m145 -137 c3 -5 -1 -10 -9
-10 -8 0 -18 5 -21 10 -3 6 1 10 9 10 8 0 18 -4 21 -10z m-505 -15 c-14 -17
-30 -20 -30 -6 0 5 8 12 18 14 9 3 19 5 21 6 2 0 -2 -6 -9 -14z m440 5 c0 -5
-5 -10 -11 -10 -5 0 -7 5 -4 10 3 6 8 10 11 10 2 0 4 -4 4 -10z m-430 -110 c0
-5 -4 -10 -10 -10 -5 0 -10 5 -10 10 0 6 5 10 10 10 6 0 10 -4 10 -10z m24
-15 c-4 -8 -16 -15 -28 -15 -20 1 -20 1 4 15 31 18 30 18 24 0z m531 -25 c0
-7 -5 -15 -12 -17 -7 -3 -11 4 -10 16 1 23 22 23 22 1z m-545 -10 c0 -5 -5
-10 -11 -10 -5 0 -7 5 -4 10 3 6 8 10 11 10 2 0 4 -4 4 -10z m428 -30 c6 -11
18 -17 26 -14 7 3 16 -2 20 -11 4 -11 13 -15 28 -10 19 5 19 3 -4 -10 -34 -19
-52 -12 -77 31 -21 35 -15 49 7 14z m127 0 c-3 -5 -13 -6 -21 -3 -12 4 -13 8
-3 14 15 9 32 2 24 -11z m-5 -44 c0 -3 -4 -8 -10 -11 -5 -3 -10 -1 -10 4 0 6
5 11 10 11 6 0 10 -2 10 -4z"/>
<path d="M5938 1714 c-3 -3 -20 -6 -38 -6 -17 -1 -27 -4 -21 -7 6 -4 -4 -22
-23 -41 -18 -19 -35 -45 -38 -58 -9 -32 38 -55 103 -50 42 3 53 10 87 46 21
23 35 42 30 42 -4 0 -8 6 -8 13 0 7 -10 18 -22 26 -13 8 -32 20 -44 28 -11 7
-23 11 -26 7z m2 -64 c0 -5 -7 -10 -16 -10 -8 0 -12 5 -9 10 3 6 10 10 16 10
5 0 9 -4 9 -10z m30 -32 c0 -18 -2 -20 -9 -8 -6 8 -7 18 -5 22 9 14 14 9 14
-14z"/>
<path d="M6428 1690 c-7 -11 -18 -20 -24 -20 -7 0 -19 -11 -28 -25 -11 -16
-12 -25 -5 -25 7 0 28 -16 47 -36 19 -19 40 -33 47 -30 7 2 17 0 23 -6 6 -6
29 -7 56 -3 l47 7 -6 39 c-4 22 -19 52 -36 70 -16 17 -29 34 -29 38 0 4 -18 8
-40 9 -30 2 -42 -2 -52 -18z m65 -36 c11 -11 -3 -24 -18 -18 -8 4 -12 10 -9
15 6 11 18 12 27 3z"/>
<path d="M615 1689 c2 -3 -10 -13 -26 -23 -17 -10 -29 -25 -27 -33 5 -27 55
-56 108 -63 45 -6 52 -4 65 16 8 13 15 30 15 38 0 13 -53 65 -68 67 -34 4 -69
3 -67 -2z m45 -64 c8 0 17 11 20 25 4 18 8 21 14 12 12 -20 -2 -60 -24 -67
-39 -12 -83 33 -59 62 10 11 14 10 23 -9 6 -13 18 -23 26 -23z"/>
<path d="M1128 1689 c-10 -6 -18 -15 -18 -22 0 -7 -9 -23 -19 -36 -15 -19 -17
-30 -9 -51 8 -24 14 -27 56 -28 50 0 86 14 115 45 17 19 16 21 -9 46 -24 24
-47 32 -81 28 -6 -1 -13 5 -15 13 -2 11 -7 12 -20 5z m19 -53 c-7 -18 18 -40
33 -31 6 4 15 17 20 29 8 20 9 20 9 -4 2 -47 -48 -69 -69 -31 -9 18 -5 51 7
51 3 0 3 -6 0 -14z"/>
<path d="M2791 1641 c-16 -12 -20 -21 -12 -25 14 -9 31 1 31 19 0 7 6 16 13
18 6 3 8 6 2 6 -5 0 -21 -8 -34 -18z"/>
<path d="M6739 1558 c0 -18 -2 -42 -4 -53 -18 -94 -20 -148 -5 -153 6 -2 7 -9
4 -14 -4 -6 -2 -8 4 -4 6 3 10 20 10 37 -1 17 5 35 13 40 9 5 10 9 2 9 -14 0
0 60 17 70 15 9 0 75 -21 88 -17 11 -19 9 -20 -20z"/>
<path d="M5654 1505 c-16 -39 -14 -51 9 -42 16 6 28 65 15 73 -5 3 -15 -11
-24 -31z"/>
<path d="M6168 1533 c7 -3 16 -2 19 1 4 3 -2 6 -13 5 -11 0 -14 -3 -6 -6z"/>
<path d="M1225 1480 c-3 -5 -1 -10 4 -10 6 0 11 5 11 10 0 6 -2 10 -4 10 -3 0
-8 -4 -11 -10z"/>
<path d="M6810 1465 c-1 -5 -2 -18 -1 -27 3 -25 -8 -22 -19 5 -12 31 -13 -4 0
-37 5 -15 6 -26 0 -26 -5 0 -8 -12 -8 -28 1 -42 -12 -75 -25 -63 -9 7 -13 -6
-15 -47 -2 -37 -12 -75 -29 -106 -25 -50 -27 -95 -7 -151 7 -20 7 -20 -14 -1
-13 11 -22 31 -22 47 0 15 -5 31 -10 34 -7 4 -10 -6 -8 -29 1 -20 6 -36 10
-36 4 0 8 -8 8 -17 0 -10 7 -31 16 -48 10 -20 13 -41 9 -64 -6 -34 10 -91 26
-91 5 0 5 7 2 17 -4 11 -3 14 5 9 7 -4 12 -13 12 -20 0 -8 13 -13 31 -14 26
-1 33 5 45 33 7 19 11 40 9 47 -4 9 9 18 40 26 37 10 45 16 44 34 0 22 -1 22
-9 3 -6 -14 -9 -15 -9 -4 -1 8 4 20 10 26 7 7 2 15 -17 28 -26 17 -27 17 -21
-4 3 -11 1 -19 -4 -15 -5 3 -9 14 -9 25 0 10 -4 19 -9 19 -5 0 -12 9 -16 20
-3 11 -12 19 -18 17 -7 -1 -12 5 -13 13 0 8 -4 23 -9 33 -4 11 -3 23 4 30 6 6
11 25 12 42 0 25 2 27 8 10 6 -15 10 -5 15 37 6 43 11 56 22 51 7 -3 11 -9 8
-14 -7 -12 3 -11 26 1 16 8 20 5 30 -26 9 -27 15 -32 25 -24 10 8 15 4 23 -18
5 -16 8 -40 6 -53 -3 -13 0 -31 6 -39 9 -13 11 -13 20 0 8 11 12 12 18 3 5 -9
17 -4 40 18 31 29 42 59 22 59 -5 0 -9 3 -8 8 4 14 -32 71 -52 82 -19 10 -20
7 -21 -37 -1 -31 -4 -38 -6 -20 -3 16 -11 31 -19 34 -8 3 -14 12 -14 20 0 8 5
11 10 8 14 -9 13 4 -6 61 -18 55 -39 77 -66 68 -14 -4 -16 -1 -11 12 4 12 3
15 -5 10 -7 -4 -13 -1 -13 6 -1 7 -2 20 -3 28 0 8 -8 15 -16 15 -8 0 -18 7
-22 15 -4 8 -7 11 -8 5z m-4 -259 c0 -15 -5 -21 -10 -16 -5 5 -6 16 -3 24 9
23 15 19 13 -8z m-29 -303 c41 -43 23 -43 -24 0 -20 19 -30 33 -22 33 8 0 28
-15 46 -33z"/>
<path d="M6120 1440 c-6 -11 -8 -24 -6 -29 3 -5 -1 -12 -10 -15 -26 -10 -52
-7 -58 7 -6 12 0 -57 10 -117 3 -16 0 -32 -6 -36 -8 -5 -6 -12 5 -24 9 -9 14
-23 11 -32 -3 -9 -2 -12 5 -9 6 4 16 -1 23 -11 8 -10 20 -15 30 -11 20 8 20 2
-1 -22 -9 -11 -20 -18 -25 -15 -4 3 -12 -5 -17 -18 -5 -13 -25 -35 -45 -49
-20 -13 -36 -32 -36 -41 0 -24 12 -23 46 4 35 28 39 29 155 30 91 1 159 -13
159 -32 0 -11 -40 -97 -40 -87 0 4 -14 0 -32 -9 -25 -13 -48 -15 -104 -10 -54
4 -80 2 -101 -9 -21 -11 -29 -12 -32 -2 -4 13 -21 27 -34 27 -5 0 -5 -5 -1
-12 4 -7 3 -8 -4 -4 -6 4 -9 13 -5 21 7 20 -34 20 -54 0 -12 -12 -13 -22 -4
-46 12 -34 51 -88 51 -70 0 6 6 11 13 11 8 0 19 11 25 25 16 35 41 32 49 -5 7
-38 10 -40 86 -47 34 -3 64 -7 66 -9 3 -2 17 8 32 22 19 18 34 24 46 20 11 -5
14 -10 6 -14 -8 -5 -7 -11 3 -20 12 -11 14 -10 14 3 0 9 -5 25 -10 36 -6 10
-7 19 -3 19 16 -1 43 -28 43 -43 0 -28 22 -31 42 -6 11 13 26 32 34 43 9 10
18 42 21 72 4 36 10 54 19 54 8 0 14 9 14 20 0 11 -4 20 -10 20 -5 0 -10 -7
-10 -16 0 -8 -4 -13 -9 -10 -5 3 -14 -1 -21 -9 -15 -18 -30 -19 -30 -2 0 18
-80 107 -96 107 -8 0 -14 7 -14 16 0 8 -4 13 -9 10 -9 -6 -21 15 -21 36 0 7 5
6 14 -1 12 -10 13 -8 8 11 -5 21 -4 22 13 8 17 -14 18 -14 7 7 -15 28 -15 34
1 27 15 -5 17 22 4 43 -4 6 -3 14 2 18 6 3 8 12 4 21 -3 8 4 22 15 33 24 20
33 57 21 86 -4 11 -8 15 -8 8 -1 -13 -28 -43 -39 -43 -23 1 -34 18 -23 38 9
18 8 23 -9 32 -18 9 -23 6 -42 -26 -19 -32 -23 -34 -28 -18 -4 10 -5 25 -2 33
3 9 1 12 -6 7 -7 -4 -12 -16 -12 -26 0 -13 -5 -18 -16 -13 -8 3 -13 11 -10 18
4 12 -23 45 -37 45 -3 0 -11 -9 -17 -20z m77 -276 c-3 -3 -12 -4 -19 -1 -8 3
-5 6 6 6 11 1 17 -2 13 -5z m11 -281 c-10 -2 -26 -2 -35 0 -10 3 -2 5 17 5 19
0 27 -2 18 -5z"/>
<path d="M1185 1420 c-3 -5 -2 -10 4 -10 5 0 13 5 16 10 3 6 2 10 -4 10 -5 0
-13 -4 -16 -10z"/>
<path d="M6880 1411 c0 -5 7 -12 16 -15 22 -9 24 -8 18 9 -7 16 -34 21 -34 6z"/>
<path d="M4518 1378 c6 -6 18 -8 28 -6 14 3 12 5 -9 10 -19 3 -25 2 -19 -4z"/>
<path d="M4392 1361 c-29 -10 -63 -28 -76 -40 -12 -12 -25 -19 -28 -16 -3 3
-18 -8 -34 -26 -16 -17 -36 -39 -44 -48 -8 -9 -15 -23 -15 -31 0 -10 -10 -15
-27 -15 -36 -1 -79 -33 -100 -76 -22 -43 -22 -75 -2 -83 11 -4 15 -2 11 8 -7
17 33 56 56 56 21 0 21 1 0 -46 -9 -22 -16 -42 -15 -46 3 -12 -21 -9 -50 6
l-27 14 3 -41 c3 -43 30 -106 50 -119 32 -22 98 -2 108 32 6 20 36 -82 44
-152 4 -31 2 -92 -5 -135 -21 -148 -23 -175 -11 -168 7 4 14 -2 17 -14 8 -30
23 -26 24 7 1 15 3 38 4 51 1 13 -1 39 -5 57 -5 20 -4 34 1 34 6 0 9 8 7 18
-2 13 3 17 23 15 37 -3 54 36 38 84 -6 19 -8 37 -5 40 8 9 37 -18 30 -28 -3
-5 12 -9 33 -9 28 0 34 3 23 10 -13 8 -12 10 3 10 9 0 17 -4 17 -10 0 -5 7
-10 15 -10 8 0 15 5 15 10 0 6 9 10 19 10 11 0 32 11 48 24 16 14 42 28 57 32
36 9 62 58 47 90 -11 24 -44 35 -35 11 3 -8 -3 -13 -15 -13 -16 0 -18 4 -9 19
7 14 7 17 -1 13 -6 -4 -19 -2 -28 3 -16 9 -15 11 7 12 14 1 33 1 43 1 11 -1
15 2 11 9 -3 6 -15 8 -26 6 -31 -8 -45 2 -41 27 3 13 0 34 -7 46 -6 12 -9 25
-5 28 6 7 37 -25 62 -64 8 -12 7 -6 -1 16 -9 23 -11 42 -5 58 5 13 7 27 4 32
-10 17 13 19 26 3 10 -12 10 -14 2 -9 -7 4 -13 3 -13 -2 0 -5 14 -15 31 -22
21 -9 27 -16 20 -23 -7 -7 -18 -5 -33 9 l-22 19 15 -24 c16 -25 52 -34 79 -20
8 4 30 14 48 21 17 7 32 20 32 29 0 28 -29 76 -57 94 -23 15 -33 16 -80 5 -48
-10 -53 -14 -48 -33 6 -21 5 -21 -8 -4 -13 15 -15 16 -21 2 -3 -8 -12 -15 -21
-15 -14 0 -14 -3 1 -25 9 -14 13 -25 8 -25 -4 0 1 -7 12 -15 10 -8 14 -15 7
-15 -6 0 -18 9 -26 20 -8 11 -17 17 -20 14 -3 -4 -14 10 -23 30 -19 38 -32 44
-52 24 -9 -9 -15 -9 -24 0 -7 7 -20 12 -31 12 -10 0 -17 5 -15 12 3 7 -6 21
-19 31 -13 10 -23 27 -23 38 0 10 -9 28 -19 38 -11 11 -18 28 -16 38 2 10 4
22 4 26 1 5 6 5 11 2 6 -3 10 -1 10 4 0 23 41 51 74 51 19 0 38 5 41 10 4 6
11 8 16 5 5 -4 17 -1 26 4 31 18 -36 12 -95 -8z m-106 -76 c-3 -8 0 -15 7 -15
7 0 4 -5 -6 -11 -10 -6 -21 -8 -24 -5 -4 3 -1 6 6 6 7 0 9 5 6 10 -3 6 -3 15
0 20 10 15 18 12 11 -5z m14 -82 c18 -17 17 -18 -26 -18 -49 -1 -52 2 -26 21
23 18 29 17 52 -3z m-139 -50 c13 -17 13 -17 -6 -3 -11 8 -22 16 -24 17 -2 2
0 3 6 3 6 0 17 -8 24 -17z m164 -24 c10 -15 -1 -23 -20 -15 -9 3 -13 10 -10
16 8 13 22 13 30 -1z m-157 -24 c-3 -3 -9 2 -12 12 -6 14 -5 15 5 6 7 -7 10
-15 7 -18z m527 -15 c3 -5 -1 -10 -9 -10 -9 0 -16 5 -16 10 0 6 4 10 9 10 6 0
13 -4 16 -10z m-345 -21 c0 -7 -25 -19 -42 -19 -7 0 -7 5 1 13 11 14 41 19 41
6z m-10 -36 c0 -11 -52 -75 -57 -70 -5 6 13 43 31 63 12 14 26 18 26 7z m13
-53 c-3 -11 -12 -20 -21 -20 -13 0 -12 3 3 20 10 11 19 20 21 20 1 0 0 -9 -3
-20z m-139 -25 c3 -8 1 -15 -4 -15 -6 0 -10 7 -10 15 0 8 2 15 4 15 2 0 6 -7
10 -15z"/>
<path d="M1290 1340 c0 -5 -6 -10 -14 -10 -9 0 -17 -15 -21 -39 -5 -32 -11
-40 -34 -44 -28 -6 -51 -40 -58 -87 -7 -43 -21 -45 -29 -4 -6 36 -18 53 -36
54 -5 0 -8 -7 -8 -15 0 -8 -4 -15 -9 -15 -11 0 -21 25 -21 54 0 21 -37 62 -47
52 -3 -3 -19 2 -36 11 -38 19 -138 23 -144 6 -3 -7 -10 -13 -17 -13 -7 0 -23
-18 -35 -40 -18 -33 -21 -49 -16 -83 4 -23 13 -52 21 -64 13 -20 12 -22 -3
-16 -16 6 -16 5 -4 -10 7 -9 18 -14 25 -10 6 3 8 2 3 -2 -4 -5 0 -16 9 -26 9
-10 14 -24 11 -32 -8 -21 -100 -13 -135 12 -22 15 -29 17 -29 5 0 -7 4 -14 9
-14 4 0 8 -7 8 -15 0 -13 -13 -17 -45 -15 -12 1 -39 -35 -74 -100 -27 -49 -45
-151 -38 -214 8 -78 49 -160 91 -180 19 -9 43 -16 55 -16 12 0 21 -5 21 -11 0
-26 25 1 30 32 7 49 32 44 34 -7 2 -30 9 -48 28 -66 21 -19 24 -27 16 -42 -9
-17 -8 -18 16 -14 29 6 34 -3 11 -22 -20 -17 -19 -25 5 -27 11 -1 20 2 20 8 0
5 -5 9 -12 9 -9 0 -9 3 0 12 9 9 15 8 25 -7 8 -10 19 -15 25 -12 6 5 8 -1 5
-14 -4 -16 -2 -20 8 -17 8 3 13 14 11 24 -2 13 7 8 28 -18 22 -26 36 -35 50
-31 11 3 20 0 20 -6 0 -6 6 -11 14 -11 8 0 17 -14 21 -30 4 -17 11 -30 16 -30
6 0 8 8 4 19 -3 10 -1 30 4 44 9 23 7 26 -33 41 -52 20 -54 20 -59 -1 -2 -10
-4 -3 -4 15 0 28 3 32 21 26 12 -4 24 -11 27 -16 10 -15 49 1 49 19 0 14 2 14
18 0 23 -21 36 -22 29 -3 -3 7 -1 18 5 24 7 7 4 13 -9 21 -20 10 -21 25 -8 69
7 20 12 22 39 16 64 -14 76 -13 76 7 0 10 -5 19 -11 19 -5 0 -8 4 -5 8 3 5 20
7 38 5 l33 -4 -25 20 c-18 14 -22 23 -14 31 7 7 16 5 29 -10 10 -11 24 -20 32
-20 8 0 -1 18 -24 45 -20 25 -45 45 -53 45 -9 0 -17 7 -17 15 0 8 4 12 9 9 4
-3 17 4 29 15 16 14 30 18 50 14 37 -7 38 9 4 49 -26 31 -32 48 -15 48 19 0
32 51 18 68 -11 13 -10 14 11 7 21 -6 22 -5 16 17 -4 12 -14 31 -23 41 -20 23
4 24 29 1 16 -14 20 -14 33 -2 16 17 5 43 -15 36 -8 -3 -29 1 -48 8 -39 16
-63 8 -35 -13 15 -11 16 -17 7 -32 -7 -10 -9 -29 -6 -42 l5 -24 -17 23 c-21
28 -24 100 -6 112 10 5 10 13 3 25 -15 28 25 162 60 202 16 17 18 25 9 42 -7
12 -17 18 -26 15 -19 -8 -20 22 -1 33 7 4 17 23 21 41 5 25 3 32 -9 32 -9 0
-16 -4 -16 -10z m-345 -90 c22 -18 6 -32 -45 -36 -48 -5 -61 1 -54 21 4 8 10
13 14 10 5 -3 14 1 21 8 16 16 42 15 64 -3z m-189 -367 c0 -10 4 -17 9 -16 6
1 11 -10 12 -25 0 -14 8 -31 16 -37 8 -6 17 -24 19 -39 2 -22 11 -31 40 -41
25 -8 35 -9 32 -1 -3 7 12 11 41 11 25 0 45 -3 45 -7 0 -22 -95 -36 -145 -22
-11 3 -29 18 -40 34 -11 16 -23 26 -27 24 -4 -3 -8 2 -8 11 0 9 -4 14 -9 11
-5 -3 -8 5 -7 18 0 13 4 22 7 20 4 -2 7 8 7 21 0 14 -4 28 -9 31 -14 8 -11 24
5 24 8 0 13 -8 12 -17z m-65 -26 c-10 -9 -11 -8 -5 6 3 10 9 15 12 12 3 -3 0
-11 -7 -18z m314 -76 c-17 -33 -45 -42 -45 -14 0 19 53 67 58 53 2 -5 -4 -22
-13 -39z m-155 -31 c0 -5 -4 -10 -10 -10 -5 0 -10 5 -10 10 0 6 5 10 10 10 6
0 10 -4 10 -10z m420 -30 c0 -5 -4 -10 -10 -10 -5 0 -10 5 -10 10 0 6 5 10 10
10 6 0 10 -4 10 -10z m-80 -236 c0 -8 -4 -14 -10 -14 -5 0 -10 9 -10 21 0 11
5 17 10 14 6 -3 10 -13 10 -21z m-405 -4 c3 -5 1 -10 -4 -10 -6 0 -11 5 -11
10 0 6 2 10 4 10 3 0 8 -4 11 -10z m275 -144 c0 -2 -7 -6 -15 -10 -8 -3 -15
-1 -15 4 0 6 7 10 15 10 8 0 15 -2 15 -4z"/>
<path d="M2652 1235 c-11 -12 -10 -15 3 -15 8 0 15 7 15 15 0 18 -2 18 -18 0z"/>
<path d="M581 1217 c-1 -10 7 -34 18 -55 10 -20 22 -56 26 -79 4 -24 11 -43
16 -43 23 0 17 31 -20 110 -22 47 -40 77 -40 67z"/>
<path d="M2600 1201 c0 -4 10 -21 21 -35 16 -20 24 -24 29 -15 5 7 6 18 3 26
-3 7 1 13 8 14 8 1 3 5 -11 9 -35 11 -50 12 -50 1z"/>
<path d="M4650 1190 c-20 -12 -10 -19 14 -10 11 3 15 9 10 13 -6 3 -16 2 -24
-3z"/>
<path d="M2910 1151 c0 -6 -9 -11 -20 -11 -46 0 -57 -113 -15 -160 13 -14 13
-19 3 -23 -10 -4 -10 -6 0 -6 6 -1 12 -10 12 -21 0 -11 6 -20 13 -21 6 0 1 -5
-12 -10 l-24 -9 33 -30 c19 -17 37 -30 42 -30 4 0 8 -8 8 -17 1 -17 2 -17 14
0 11 14 22 17 48 12 30 -6 34 -3 46 24 15 34 9 51 -16 51 -10 0 -13 3 -6 8 38
26 66 207 35 227 -5 3 -39 7 -75 9 -36 3 -70 7 -76 11 -5 3 -10 1 -10 -4z
m153 -66 c-3 -9 -8 -14 -10 -11 -3 3 -2 9 2 15 9 16 15 13 8 -4z m-131 -17
c-9 -9 -15 -9 -24 0 -9 9 -7 12 12 12 19 0 21 -3 12 -12z m-32 -68 c13 -8 13
-10 -2 -10 -9 0 -20 5 -23 10 -8 13 5 13 25 0z"/>
<path d="M5696 1065 c-4 -21 -14 -52 -22 -67 -20 -39 -18 -54 6 -33 15 13 20
14 20 5 0 -9 3 -11 10 -4 5 5 6 35 2 74 l-8 65 -8 -40z"/>
<path d="M4794 1045 c-7 -28 -10 -52 -8 -54 7 -8 25 54 22 78 -2 18 -6 12 -14
-24z"/>
<path d="M2606 1020 c-5 -41 -3 -55 11 -73 36 -44 164 -159 171 -152 4 3 -1
11 -11 16 -9 6 -17 15 -17 20 0 6 6 7 13 3 10 -6 10 -4 0 7 -7 7 -13 20 -13
29 0 9 -13 26 -30 38 -16 12 -37 36 -45 52 -9 17 -20 30 -26 30 -6 0 -6 -8 2
-21 8 -16 8 -24 -2 -33 -9 -8 -11 -7 -6 6 3 10 2 20 -3 23 -4 3 -10 -1 -13 -7
-2 -7 -4 -1 -3 14 0 14 4 24 9 21 4 -2 7 5 7 16 0 23 -15 28 -24 9 -3 -7 -5 2
-3 20 6 52 -10 37 -17 -18z"/>
<path d="M4915 1050 c3 -5 11 -10 16 -10 6 0 7 5 4 10 -3 6 -11 10 -16 10 -6
0 -7 -4 -4 -10z"/>
<path d="M6490 1046 c0 -9 5 -16 10 -16 6 0 10 4 10 9 0 6 -4 13 -10 16 -5 3
-10 -1 -10 -9z"/>
<path d="M5629 1013 c0 -12 -2 -13 -6 -5 -7 18 -33 -4 -33 -29 0 -23 15 -32
28 -16 18 21 33 67 22 67 -6 0 -10 -8 -11 -17z"/>
<path d="M1567 1004 c-4 -4 -4 -18 -1 -30 5 -18 2 -24 -11 -24 -13 0 -15 -3
-7 -13 19 -22 22 -96 5 -113 -8 -8 -12 -18 -8 -22 4 -4 10 -1 12 6 6 16 33 15
71 -4 35 -17 46 -30 47 -56 0 -10 5 -18 10 -17 16 0 6 98 -15 142 -11 23 -20
46 -20 52 0 16 -75 87 -83 79z"/>
<path d="M6010 986 c0 -11 30 -39 36 -34 2 3 -5 13 -16 23 -11 10 -20 15 -20
11z"/>
<path d="M4997 930 c7 -26 -25 -40 -42 -17 -8 11 -27 16 -64 15 l-53 0 7 -46
c4 -26 14 -55 22 -64 23 -26 94 -24 118 2 20 22 33 114 17 124 -6 4 -8 -2 -5
-14z"/>
<path d="M4719 878 c-1 -2 -3 -16 -5 -32 -3 -27 -2 -28 17 -11 23 21 25 45 4
45 -8 0 -16 -1 -16 -2z"/>
<path d="M2799 831 c14 -26 31 -36 31 -19 0 7 -9 19 -21 26 -19 12 -19 11 -10
-7z"/>
<path d="M4686 835 c-16 -12 -17 -15 -4 -15 9 0 18 7 22 15 7 18 6 18 -18 0z"/>
<path d="M1460 795 c7 -9 15 -13 17 -11 7 7 -7 26 -19 26 -6 0 -6 -6 2 -15z"/>
<path d="M1327 774 c-4 -4 -7 -16 -7 -26 0 -10 -4 -18 -10 -18 -5 0 -7 -7 -4
-15 4 -8 10 -15 15 -15 4 0 6 6 3 14 -3 9 2 16 15 18 17 3 18 6 7 26 -6 12
-15 19 -19 16z"/>
<path d="M5920 752 c0 -5 7 -9 15 -9 8 0 15 4 15 9 0 4 -7 8 -15 8 -8 0 -15
-4 -15 -8z"/>
<path d="M6153 711 c-11 -11 -23 -17 -26 -15 -3 3 -8 -5 -13 -18 -4 -13 -16
-31 -27 -40 -11 -10 -15 -18 -8 -18 7 0 9 -5 5 -12 -4 -6 0 -16 8 -22 8 -6 21
-22 28 -35 11 -22 13 -23 22 -7 7 13 17 16 35 11 l26 -6 -18 28 c-17 27 -17
27 1 11 17 -17 19 -17 37 0 19 16 19 16 13 -5 -6 -17 -3 -23 8 -23 9 0 16 -4
16 -10 0 -5 4 -10 8 -10 12 0 32 46 32 71 0 11 4 18 8 15 5 -3 9 1 9 9 0 8 -4
12 -8 9 -4 -2 -11 5 -14 16 -5 17 -9 19 -21 9 -12 -9 -13 -9 -9 3 4 9 -8 20
-37 33 -24 11 -45 21 -48 23 -3 1 -15 -6 -27 -17z"/>
<path d="M1695 690 c3 -5 8 -10 11 -10 2 0 4 5 4 10 0 6 -5 10 -11 10 -5 0 -7
-4 -4 -10z"/>
<path d="M4494 685 c10 -7 15 -18 12 -23 -3 -6 1 -13 10 -16 23 -9 24 -8 8 24
-9 17 -23 30 -32 30 -15 -1 -15 -2 2 -15z"/>
<path d="M4702 650 c0 -14 2 -19 5 -12 2 6 2 18 0 25 -3 6 -5 1 -5 -13z"/>
<path d="M4350 619 c-6 -23 -9 -43 -7 -46 3 -2 8 9 12 26 4 17 11 33 16 36 12
8 12 25 -1 25 -5 0 -14 -18 -20 -41z"/>
<path d="M4400 652 c0 -4 16 -6 35 -4 19 2 35 6 35 8 0 2 -16 4 -35 4 -19 0
-35 -4 -35 -8z"/>
<path d="M1699 618 c-1 -12 0 -29 1 -37 1 -8 -2 -17 -7 -20 -11 -8 -32 -42
-39 -63 -3 -9 -17 -19 -31 -23 -24 -6 -25 -7 -7 -20 18 -14 18 -14 -3 -15 -12
0 -25 -4 -28 -10 -3 -5 1 -10 9 -10 9 0 16 -4 16 -10 0 -5 -5 -10 -11 -10 -8
0 -8 -4 0 -13 8 -10 7 -19 -3 -33 -10 -13 -11 -24 -4 -37 8 -16 7 -18 -11 -12
-15 4 -21 2 -21 -8 0 -9 -6 -17 -12 -20 -10 -3 -10 -7 0 -20 8 -9 11 -20 8
-26 -3 -5 0 -12 6 -15 10 -5 10 -7 1 -12 -7 -3 -9 -13 -6 -21 5 -12 2 -15 -10
-10 -13 5 -17 1 -17 -16 0 -13 5 -28 12 -35 15 -15 3 -28 -14 -14 -9 7 -17 6
-26 -4 -11 -12 -10 -14 3 -14 8 0 20 -9 27 -20 7 -11 18 -20 24 -20 15 0 26
-28 17 -42 -3 -7 -1 -8 5 -4 7 4 12 16 12 27 0 12 4 17 11 14 6 -4 24 -8 41
-9 16 -1 34 -10 40 -19 6 -12 22 -17 53 -17 40 0 45 2 45 23 0 13 -5 28 -12
35 -9 9 -9 12 1 12 8 0 11 7 8 20 -3 11 -1 23 4 26 5 3 5 14 -2 25 -6 12 -8
23 -5 26 2 3 0 17 -5 32 -15 38 -19 100 -10 143 5 21 6 38 2 38 -3 0 -7 40 -8
88 -2 78 -1 85 12 67 33 -46 37 -48 47 -31 14 25 -30 96 -64 103 -15 3 -26 10
-25 15 1 6 -4 13 -10 15 -8 3 -13 -5 -14 -19z m-109 -344 c0 -8 -4 -12 -10 -9
-5 3 -10 10 -10 16 0 5 5 9 10 9 6 0 10 -7 10 -16z m120 -34 c0 -5 -7 -10 -15
-10 -8 0 -15 5 -15 10 0 6 7 10 15 10 8 0 15 -4 15 -10z m-30 -51 c0 -5 -9 -9
-20 -9 -22 0 -23 1 -14 24 5 13 9 14 20 5 8 -6 14 -15 14 -20z m-113 -111 c-3
-8 -6 -5 -6 6 -1 11 2 17 5 13 3 -3 4 -12 1 -19z"/>
<path d="M1202 414 c2 -11 11 -20 22 -22 13 -3 17 1 14 14 -2 11 -11 20 -22
22 -13 3 -17 -1 -14 -14z"/>
<path d="M1272 404 c-6 -7 -12 -15 -12 -18 0 -7 40 5 45 14 9 14 -20 18 -33 4z"/>
<path d="M750 364 c0 -8 5 -12 10 -9 6 3 10 10 10 16 0 5 -4 9 -10 9 -5 0 -10
-7 -10 -16z"/>
<path d="M1153 373 c-16 -6 -17 -53 -2 -53 6 0 9 -9 6 -20 -3 -11 -1 -23 4
-26 17 -10 10 -37 -9 -32 -14 4 -18 -2 -18 -34 -1 -21 2 -38 7 -38 5 0 9 -9 9
-20 0 -11 5 -20 11 -20 5 0 7 4 4 10 -3 5 -2 10 3 10 5 0 9 17 10 37 1 21 6
39 10 41 5 1 6 20 2 41 -5 31 -4 38 7 34 7 -3 13 0 13 6 0 6 -7 11 -16 11 -10
0 -14 6 -11 14 3 8 1 17 -6 20 -9 3 -9 5 1 5 6 1 12 6 12 11 0 10 -16 12 -37
3z"/>
<path d="M1285 360 c3 -5 8 -10 11 -10 2 0 4 5 4 10 0 6 -5 10 -11 10 -5 0 -7
-4 -4 -10z"/>
<path d="M1421 320 c-10 -6 -6 -12 17 -24 46 -24 52 1 7 27 -6 3 -17 2 -24 -3z"/>
<path d="M1336 252 c-3 -5 1 -9 9 -9 8 0 12 4 9 9 -3 4 -7 8 -9 8 -2 0 -6 -4
-9 -8z"/>
<path d="M4080 177 c-39 -81 -66 -177 -49 -177 4 0 11 17 15 38 8 45 31 82 50
82 8 0 14 7 14 15 0 8 9 15 20 15 22 0 26 10 10 26 -6 6 -11 27 -12 47 -1 20
-3 37 -4 37 -2 0 -22 -37 -44 -83z"/>
<path d="M1482 214 c-7 -14 -6 -24 3 -37 15 -21 29 -23 22 -3 -3 8 -1 17 6 19
8 3 7 10 -5 22 -15 16 -17 16 -26 -1z"/>
<path d="M1275 190 c3 -5 8 -20 10 -31 6 -29 13 -35 26 -22 13 13 -3 48 -26
57 -9 3 -13 2 -10 -4z"/>
<path d="M1107 183 c-4 -3 -7 -11 -7 -17 0 -6 5 -5 12 2 6 6 9 14 7 17 -3 3
-9 2 -12 -2z"/>
<path d="M6222 170 c0 -14 2 -19 5 -12 2 6 2 18 0 25 -3 6 -5 1 -5 -13z"/>
<path d="M971 163 c-1 -6 -10 -9 -20 -6 -16 4 -19 0 -18 -31 1 -33 17 -54 17
-22 0 8 7 22 16 30 8 9 13 22 11 29 -4 8 -6 8 -6 0z"/>
<path d="M986 148 c-11 -41 -8 -52 9 -38 16 13 21 60 6 60 -5 0 -11 -10 -15
-22z"/>
<path d="M1956 132 c-7 -12 12 -38 21 -28 4 5 2 11 -5 13 -6 3 -10 9 -6 14 3
5 3 9 0 9 -3 0 -7 -4 -10 -8z"/>
<path d="M1058 122 c-28 -3 -44 -36 -32 -66 11 -28 24 -17 26 22 1 37 1 37 5
4 2 -18 10 -44 17 -58 l14 -25 6 26 c4 14 13 25 21 25 7 0 16 4 19 9 8 12 -19
63 -28 54 -4 -4 -10 -3 -14 2 -4 6 -19 9 -34 7z"/>
<path d="M500 116 c0 -8 51 -13 56 -5 3 5 -9 9 -25 9 -17 0 -31 -2 -31 -4z"/>
<path d="M570 101 c0 -5 7 -12 16 -15 22 -9 24 -8 24 9 0 8 -9 15 -20 15 -11
0 -20 -4 -20 -9z"/>
<path d="M1967 84 c-4 -4 -2 -13 4 -21 13 -15 -4 -43 -28 -43 -8 0 -11 -4 -8
-10 3 -5 29 -10 57 -10 l50 0 -25 42 c-25 43 -38 54 -50 42z"/>
<path d="M675 60 c-3 -5 -1 -10 4 -10 6 0 11 5 11 10 0 6 -2 10 -4 10 -3 0 -8
-4 -11 -10z"/>
<path d="M1150 64 c0 -17 24 -64 33 -64 5 0 5 10 2 23 -8 24 -35 57 -35 41z"/>
</g>
</svg>
